<?xml version="1.0" encoding="UTF-8"?>
<svg id="_レイヤー_1" xmlns="http://www.w3.org/2000/svg" version="1.1" viewBox="0 0 186.34 48.84">
  <!-- Generator: Adobe Illustrator 30.2.1, SVG Export Plug-In . SVG Version: 2.1.1 Build 1)  -->
  <defs>
    <style>
      .st0 {
        fill: #06b3c4;
      }

      .st1 {
        fill: #ffe008;
      }
    </style>
  </defs>
  <g id="_レイヤー_2">
    <g>
      <path class="st0" d="M27.61,3.27V0h-10.09v3.27H6.69v5.05h12.03c1.11,0,2.01.9,2.01,2.01,0,.42-.13.81-.35,1.13h0L0,38.85h14.23L40.8,3.27h-13.19Z"/>
      <polygon class="st0" points="56.78 0 45.79 14.77 55.27 14.77 66.26 0 56.78 0"/>
      <path class="st0" d="M75.32,11.82c0,.41-.13.8-.34,1.11l-26.73,35.91h13.09L95.25,3.27h-13.09l-1.08,1.46h-12.07l-3.78,5.08h8.08c1.11,0,2.01.9,2.01,2.01Z"/>
      <polygon class="st0" points="33.72 48.84 33.72 38.85 33.73 38.85 44.04 25.04 30.91 25.04 20.64 38.83 20.63 38.83 20.63 48.84 33.72 48.84"/>
      <polygon class="st0" points="160.97 48.84 186.34 14.77 175.67 14.77 157.75 38.83 148.3 38.83 140.84 48.84 160.97 48.84"/>
      <polygon class="st0" points="112.89 3.27 112.88 3.27 82.73 43.76 80.22 43.76 76.43 48.84 85.92 48.84 119.86 3.27 112.89 3.27"/>
      <path class="st0" d="M121.88,36.82c0-.45.15-.86.4-1.19l15.54-20.87h-20l-3.78,5.08h2.92c1.11,0,2.01.9,2.01,2.01,0,.4-.13.79-.33,1.09l-19.28,25.9h24.42l7.45-10.01h-7.34c-1.11,0-2.01-.9-2.01-2.01Z"/>
      <polygon class="st0" points="161.25 0 150.26 14.77 159.74 14.77 170.73 0 161.25 0"/>
    </g>
  </g>
  <g id="_レイヤー_21">
    <g>
      <polygon class="st1" points="140.19 0 134.41 0 138.47 5.46 134.41 10.92 140.19 10.92 144.26 5.46 140.19 0"/>
      <polygon class="st1" points="129.25 0 123.47 0 127.54 5.46 123.47 10.92 129.25 10.92 133.32 5.46 129.25 0"/>
    </g>
  </g>
</svg>